<svg width="1239" height="626" viewBox="0 0 1239 626" fill="none" xmlns="http://www.w3.org/2000/svg">
<path d="M1133.43 138.867C1068.95 144.582 1003.35 132.687 946.128 117.62C866.556 96.6164 916.529 12.3536 831.3 12.3536C760.7 -10.2389 554.071 5.06679 462.805 5.06679C371.54 5.06679 275.761 27.0403 239.779 66.4432C201.648 108.229 237.071 156.781 220.52 201.576C193.738 274.283 37.0011 324.774 10.8639 397.48C-4.09624 439.125 -10.7459 507.04 39.465 542.081C146.249 616.605 -139.045 626.208 572.986 622.386C693.354 613.782 1122.66 644.386 1214.01 606.578C1305.37 568.771 1111.23 465.335 1185.56 420.096" fill="#DA2549"/>
</svg>
